rat_emergent_best
version=1
nRows=76
nColumns=15
inDegrees=yes
endheader
time	sacrum_pitch	sacrum_roll	sacrum_yaw	sacrum_x	sacrum_y	sacrum_z	sacroiliac_flx	hip_flx	hip_add	hip_int	knee_flx	ankle_flx	ankle_add	ankle_int
0.000000	22.370217	0.000000	0.000000	0.000000	0.050000	0.000000	3.700000	45.000011	-10.000000	0.000000	-118.000463	5.003302	-5.000000	0.000000
0.000800	22.370217	0.000000	0.000000	0.000000	0.050000	0.000000	3.700000	45.032391	-10.000000	0.000000	-118.123606	5.076413	-5.000000	0.000000
0.001600	22.370217	0.000000	0.000000	0.000000	0.050000	0.000000	3.700000	45.087058	-10.000000	0.000000	-118.307563	5.142124	-5.000000	0.000000
0.002400	22.370217	0.000000	0.000000	0.000000	0.050000	0.000000	3.700000	45.142633	-10.000000	0.000000	-118.486855	5.206545	-5.000000	0.000000
0.003200	22.370217	0.000000	0.000000	0.000000	0.050000	0.000000	3.700000	45.191948	-10.000000	0.000000	-118.651934	5.271320	-5.000000	0.000000
0.004000	22.370217	0.000000	0.000000	0.000000	0.050000	0.000000	3.700000	45.231511	-10.000000	0.000000	-118.802320	5.337025	-5.000000	0.000000
0.004800	22.370217	0.000000	0.000000	0.000000	0.050000	0.000000	3.700000	45.259568	-10.000000	0.000000	-118.938997	5.403894	-5.000000	0.000000
0.005600	22.370217	0.000000	0.000000	0.000000	0.050000	0.000000	3.700000	45.275577	-10.000000	0.000000	-119.063171	5.471983	-5.000000	0.000000
0.006400	22.370217	0.000000	0.000000	0.000000	0.050000	0.000000	3.700000	45.279965	-10.000000	0.000000	-119.176097	5.541212	-5.000000	0.000000
0.007200	22.370217	0.000000	0.000000	0.000000	0.050000	0.000000	3.700000	45.273943	-10.000000	0.000000	-119.279032	5.611399	-5.000000	0.000000
0.008000	22.370217	0.000000	0.000000	0.000000	0.050000	0.000000	3.700000	45.259043	-10.000000	0.000000	-119.373061	5.682334	-5.000000	0.000000
0.008800	22.370217	0.000000	0.000000	0.000000	0.050000	0.000000	3.700000	45.236746	-10.000000	0.000000	-119.459171	5.753587	-5.000000	0.000000
0.009600	22.370217	0.000000	0.000000	0.000000	0.050000	0.000000	3.700000	45.208397	-10.000000	0.000000	-119.538383	5.824680	-5.000000	0.000000
0.010400	22.370217	0.000000	0.000000	0.000000	0.050000	0.000000	3.700000	45.175155	-10.000000	0.000000	-119.611640	5.895220	-5.000000	0.000000
0.011200	22.370217	0.000000	0.000000	0.000000	0.050000	0.000000	3.700000	45.137960	-10.000000	0.000000	-119.679674	5.964991	-5.000000	0.000000
0.012000	22.370217	0.000000	0.000000	0.000000	0.050000	0.000000	3.700000	45.097584	-10.000000	0.000000	-119.743124	6.033776	-5.000000	0.000000
0.012800	22.370217	0.000000	0.000000	0.000000	0.050000	0.000000	3.700000	45.054652	-10.000000	0.000000	-119.802564	6.101427	-5.000000	0.000000
0.013600	22.370217	0.000000	0.000000	0.000000	0.050000	0.000000	3.700000	45.009651	-10.000000	0.000000	-119.858451	6.167869	-5.000000	0.000000
0.014400	22.370217	0.000000	0.000000	0.000000	0.050000	0.000000	3.700000	44.962962	-10.000000	0.000000	-119.911166	6.233061	-5.000000	0.000000
0.015200	22.370217	0.000000	0.000000	0.000000	0.050000	0.000000	3.700000	44.914877	-10.000000	0.000000	-119.961036	6.296990	-5.000000	0.000000
0.016000	22.370217	0.000000	0.000000	0.000000	0.050000	0.000000	3.700000	44.865621	-10.000000	0.000000	-120.008342	6.359662	-5.000000	0.000000
0.016800	22.370217	0.000000	0.000000	0.000000	0.050000	0.000000	3.700000	44.815368	-10.000000	0.000000	-120.053331	6.421096	-5.000000	0.000000
0.017600	22.370217	0.000000	0.000000	0.000000	0.050000	0.000000	3.700000	44.764247	-10.000000	0.000000	-120.096220	6.481321	-5.000000	0.000000
0.018400	22.370217	0.000000	0.000000	0.000000	0.050000	0.000000	3.700000	44.712358	-10.000000	0.000000	-120.137198	6.540373	-5.000000	0.000000
0.019200	22.370217	0.000000	0.000000	0.000000	0.050000	0.000000	3.700000	44.659774	-10.000000	0.000000	-120.176436	6.598291	-5.000000	0.000000
0.020000	22.370217	0.000000	0.000000	0.000000	0.050000	0.000000	3.700000	44.606553	-10.000000	0.000000	-120.214085	6.655121	-5.000000	0.000000
0.020800	22.370217	0.000000	0.000000	0.000000	0.050000	0.000000	3.700000	44.552736	-10.000000	0.000000	-120.250279	6.710906	-5.000000	0.000000
0.021600	22.370217	0.000000	0.000000	0.000000	0.050000	0.000000	3.700000	44.498355	-10.000000	0.000000	-120.285139	6.765694	-5.000000	0.000000
0.022400	22.370217	0.000000	0.000000	0.000000	0.050000	0.000000	3.700000	44.443434	-10.000000	0.000000	-120.318776	6.819532	-5.000000	0.000000
0.023200	22.370217	0.000000	0.000000	0.000000	0.050000	0.000000	3.700000	44.387990	-10.000000	0.000000	-120.351286	6.872463	-5.000000	0.000000
0.024000	22.370217	0.000000	0.000000	0.000000	0.050000	0.000000	3.700000	44.332037	-10.000000	0.000000	-120.382760	6.924535	-5.000000	0.000000
0.024800	22.370217	0.000000	0.000000	0.000000	0.050000	0.000000	3.700000	44.275584	-10.000000	0.000000	-120.413277	6.975790	-5.000000	0.000000
0.025600	22.370217	0.000000	0.000000	0.000000	0.050000	0.000000	3.700000	44.218639	-10.000000	0.000000	-120.442913	7.026272	-5.000000	0.000000
0.026400	22.370217	0.000000	0.000000	0.000000	0.050000	0.000000	3.700000	44.161207	-10.000000	0.000000	-120.471733	7.076021	-5.000000	0.000000
0.027200	22.370217	0.000000	0.000000	0.000000	0.050000	0.000000	3.700000	44.103293	-10.000000	0.000000	-120.499800	7.125077	-5.000000	0.000000
0.028000	22.370217	0.000000	0.000000	0.000000	0.050000	0.000000	3.700000	44.044900	-10.000000	0.000000	-120.527168	7.173477	-5.000000	0.000000
0.028800	22.370217	0.000000	0.000000	0.000000	0.050000	0.000000	3.700000	43.986029	-10.000000	0.000000	-120.553891	7.221259	-5.000000	0.000000
0.029600	22.370217	0.000000	0.000000	0.000000	0.050000	0.000000	3.700000	43.926683	-10.000000	0.000000	-120.580014	7.268456	-5.000000	0.000000
0.030400	22.370217	0.000000	0.000000	0.000000	0.050000	0.000000	3.700000	43.866862	-10.000000	0.000000	-120.605583	7.315102	-5.000000	0.000000
0.031200	22.370217	0.000000	0.000000	0.000000	0.050000	0.000000	3.700000	43.806567	-10.000000	0.000000	-120.630636	7.361228	-5.000000	0.000000
0.032000	22.370217	0.000000	0.000000	0.000000	0.050000	0.000000	3.700000	43.745798	-10.000000	0.000000	-120.655211	7.406863	-5.000000	0.000000
0.032800	22.370217	0.000000	0.000000	0.000000	0.050000	0.000000	3.700000	43.684555	-10.000000	0.000000	-120.679342	7.452037	-5.000000	0.000000
0.033600	22.370217	0.000000	0.000000	0.000000	0.050000	0.000000	3.700000	43.622840	-10.000000	0.000000	-120.703060	7.496775	-5.000000	0.000000
0.034400	22.370217	0.000000	0.000000	0.000000	0.050000	0.000000	3.700000	43.560650	-10.000000	0.000000	-120.726396	7.541104	-5.000000	0.000000
0.035200	22.370217	0.000000	0.000000	0.000000	0.050000	0.000000	3.700000	43.497987	-10.000000	0.000000	-120.749376	7.585047	-5.000000	0.000000
0.036000	22.370217	0.000000	0.000000	0.000000	0.050000	0.000000	3.700000	43.434848	-10.000000	0.000000	-120.772026	7.628626	-5.000000	0.000000
0.036800	22.370217	0.000000	0.000000	0.000000	0.050000	0.000000	3.700000	43.371235	-10.000000	0.000000	-120.794368	7.671864	-5.000000	0.000000
0.037600	22.370217	0.000000	0.000000	0.000000	0.050000	0.000000	3.700000	43.307147	-10.000000	0.000000	-120.816426	7.714781	-5.000000	0.000000
0.038400	22.370217	0.000000	0.000000	0.000000	0.050000	0.000000	3.700000	43.242582	-10.000000	0.000000	-120.838219	7.757395	-5.000000	0.000000
0.039200	22.370217	0.000000	0.000000	0.000000	0.050000	0.000000	3.700000	43.177541	-10.000000	0.000000	-120.859766	7.799725	-5.000000	0.000000
0.040000	22.370217	0.000000	0.000000	0.000000	0.050000	0.000000	3.700000	43.112023	-10.000000	0.000000	-120.881086	7.841787	-5.000000	0.000000
0.040800	22.370217	0.000000	0.000000	0.000000	0.050000	0.000000	3.700000	43.046026	-10.000000	0.000000	-120.902194	7.883597	-5.000000	0.000000
0.041600	22.370217	0.000000	0.000000	0.000000	0.050000	0.000000	3.700000	42.979551	-10.000000	0.000000	-120.923105	7.925171	-5.000000	0.000000
0.042400	22.370217	0.000000	0.000000	0.000000	0.050000	0.000000	3.700000	42.912596	-10.000000	0.000000	-120.943835	7.966523	-5.000000	0.000000
0.043200	22.370217	0.000000	0.000000	0.000000	0.050000	0.000000	3.700000	42.845161	-10.000000	0.000000	-120.964398	8.007665	-5.000000	0.000000
0.044000	22.370217	0.000000	0.000000	0.000000	0.050000	0.000000	3.700000	42.777245	-10.000000	0.000000	-120.984804	8.048611	-5.000000	0.000000
0.044800	22.370217	0.000000	0.000000	0.000000	0.050000	0.000000	3.700000	42.708848	-10.000000	0.000000	-121.005067	8.089371	-5.000000	0.000000
0.045600	22.370217	0.000000	0.000000	0.000000	0.050000	0.000000	3.700000	42.639968	-10.000000	0.000000	-121.025197	8.129957	-5.000000	0.000000
0.046400	22.370217	0.000000	0.000000	0.000000	0.050000	0.000000	3.700000	42.570604	-10.000000	0.000000	-121.045206	8.170379	-5.000000	0.000000
0.047200	22.370217	0.000000	0.000000	0.000000	0.050000	0.000000	3.700000	42.500757	-10.000000	0.000000	-121.065101	8.210647	-5.000000	0.000000
0.048000	22.370217	0.000000	0.000000	0.000000	0.050000	0.000000	3.700000	42.430424	-10.000000	0.000000	-121.084894	8.250770	-5.000000	0.000000
0.048800	22.370217	0.000000	0.000000	0.000000	0.050000	0.000000	3.700000	42.359606	-10.000000	0.000000	-121.104591	8.290756	-5.000000	0.000000
0.049600	22.370217	0.000000	0.000000	0.000000	0.050000	0.000000	3.700000	42.288302	-10.000000	0.000000	-121.124202	8.330612	-5.000000	0.000000
0.050400	22.370217	0.000000	0.000000	0.000000	0.050000	0.000000	3.700000	42.216510	-10.000000	0.000000	-121.143734	8.370347	-5.000000	0.000000
0.051200	22.370217	0.000000	0.000000	0.000000	0.050000	0.000000	3.700000	42.144230	-10.000000	0.000000	-121.163194	8.409967	-5.000000	0.000000
0.052000	22.370217	0.000000	0.000000	0.000000	0.050000	0.000000	3.700000	42.071461	-10.000000	0.000000	-121.182589	8.449478	-5.000000	0.000000
0.052800	22.370217	0.000000	0.000000	0.000000	0.050000	0.000000	3.700000	41.998202	-10.000000	0.000000	-121.201925	8.488887	-5.000000	0.000000
0.053600	22.370217	0.000000	0.000000	0.000000	0.050000	0.000000	3.700000	41.924453	-10.000000	0.000000	-121.221207	8.528199	-5.000000	0.000000
0.054400	22.370217	0.000000	0.000000	0.000000	0.050000	0.000000	3.700000	41.850213	-10.000000	0.000000	-121.240442	8.567419	-5.000000	0.000000
0.055200	22.370217	0.000000	0.000000	0.000000	0.050000	0.000000	3.700000	41.775480	-10.000000	0.000000	-121.259635	8.606551	-5.000000	0.000000
0.056000	22.370217	0.000000	0.000000	0.000000	0.050000	0.000000	3.700000	41.700254	-10.000000	0.000000	-121.278790	8.645601	-5.000000	0.000000
0.056800	22.370217	0.000000	0.000000	0.000000	0.050000	0.000000	3.700000	41.624534	-10.000000	0.000000	-121.297913	8.684572	-5.000000	0.000000
0.057600	22.370217	0.000000	0.000000	0.000000	0.050000	0.000000	3.700000	41.548320	-10.000000	0.000000	-121.317007	8.723469	-5.000000	0.000000
0.058400	22.370217	0.000000	0.000000	0.000000	0.050000	0.000000	3.700000	41.471610	-10.000000	0.000000	-121.336077	8.762293	-5.000000	0.000000
0.059200	22.370217	0.000000	0.000000	0.000000	0.050000	0.000000	3.700000	41.394403	-10.000000	0.000000	-121.355127	8.801050	-5.000000	0.000000
0.060000	22.370217	0.000000	0.000000	0.000000	0.050000	0.000000	3.700000	41.316700	-10.000000	0.000000	-121.374160	8.839741	-5.000000	0.000000
